<?xml version="1.0" encoding="UTF-8"?>
<!DOCTYPE svg PUBLIC "-//W3C//DTD SVG 1.1//EN" "http://www.w3.org/Graphics/SVG/1.1/DTD/svg11.dtd">
<svg xmlns="http://www.w3.org/2000/svg" version="1.1" width="47px" height="69px" style="shape-rendering:geometricPrecision; text-rendering:geometricPrecision; image-rendering:optimizeQuality; fill-rule:evenodd; clip-rule:evenodd" xmlns:xlink="http://www.w3.org/1999/xlink">
<g><path style="opacity:1" fill="#a2ccb1" d="M 11.5,-0.5 C 19.1667,-0.5 26.8333,-0.5 34.5,-0.5C 33.9717,0.72065 33.305,1.88732 32.5,3C 26.1754,3.49954 19.8421,3.66621 13.5,3.5C 13.2671,1.93819 12.6005,0.60486 11.5,-0.5 Z"/></g>
<g><path style="opacity:0.939" fill="#cfe6d5" d="M 10.5,-0.5 C 10.8333,-0.5 11.1667,-0.5 11.5,-0.5C 12.6005,0.60486 13.2671,1.93819 13.5,3.5C 13.5,3.83333 13.5,4.16667 13.5,4.5C 10.0689,10.3734 6.40225,16.0401 2.5,21.5C 1.48837,20.1283 0.488369,18.795 -0.5,17.5C -0.5,16.5 -0.5,15.5 -0.5,14.5C 3.52117,9.80447 7.18783,4.80447 10.5,-0.5 Z"/></g>
<g><path style="opacity:0.951" fill="#d0e7d7" d="M 34.5,-0.5 C 34.8333,-0.5 35.1667,-0.5 35.5,-0.5C 38.8122,4.80447 42.4788,9.80447 46.5,14.5C 46.5,15.5 46.5,16.5 46.5,17.5C 45.0256,18.4363 44.0256,19.7697 43.5,21.5C 39.6963,16.1767 36.0297,10.6767 32.5,5C 26.1754,4.50046 19.8421,4.33379 13.5,4.5C 13.5,4.16667 13.5,3.83333 13.5,3.5C 19.8421,3.66621 26.1754,3.49954 32.5,3C 33.305,1.88732 33.9717,0.72065 34.5,-0.5 Z"/></g>
<g><path style="opacity:0.999" fill="#cee5d4" d="M 15.5,5.5 C 18.083,8.99741 20.4164,12.6641 22.5,16.5C 22.5,16.8333 22.5,17.1667 22.5,17.5C 20.8333,20.1667 19.1667,22.8333 17.5,25.5C 15.5207,28.0986 13.5207,30.7653 11.5,33.5C 9.17409,31.0029 7.00742,28.3362 5,25.5C 4.50051,31.4908 4.33385,37.4908 4.5,43.5C 4.43255,44.9587 4.76589,46.2921 5.5,47.5C 4.83333,47.5 4.5,47.8333 4.5,48.5C 3.83333,48.5 3.5,48.1667 3.5,47.5C 3.5,47.1667 3.5,46.8333 3.5,46.5C 3.33365,38.8261 3.50031,31.1594 4,23.5C 7.27092,17.0783 11.1043,11.0783 15.5,5.5 Z"/></g>
<g><path style="opacity:0.995" fill="#87bd9c" d="M -0.5,17.5 C 0.488369,18.795 1.48837,20.1283 2.5,21.5C 2.17395,30.0168 2.50728,38.3501 3.5,46.5C 3.5,46.8333 3.5,47.1667 3.5,47.5C 1.96995,48.2112 0.636613,49.2112 -0.5,50.5C -0.5,39.5 -0.5,28.5 -0.5,17.5 Z"/></g>
<g><path style="opacity:0.984" fill="#86bc9b" d="M 46.5,17.5 C 46.5,28.5 46.5,39.5 46.5,50.5C 45.3634,49.2112 44.0301,48.2112 42.5,47.5C 43.4699,38.9177 43.8032,30.2511 43.5,21.5C 44.0256,19.7697 45.0256,18.4363 46.5,17.5 Z"/></g>
<g><path style="opacity:0.995" fill="#99c7aa" d="M 17.5,25.5 C 17.8333,25.5 18.1667,25.5 18.5,25.5C 19.4491,30.7401 19.7825,36.0735 19.5,41.5C 22.6533,41.8431 24.9866,41.5098 26.5,40.5C 26.7828,39.7109 27.2828,39.0442 28,38.5C 28.2321,39.7375 28.7321,40.7375 29.5,41.5C 27.5179,44.8103 25.1846,47.8103 22.5,50.5C 18.8854,45.0454 15.052,39.712 11,34.5C 8.81183,37.5672 6.64516,40.5672 4.5,43.5C 4.33385,37.4908 4.50051,31.4908 5,25.5C 7.00742,28.3362 9.17409,31.0029 11.5,33.5C 13.5207,30.7653 15.5207,28.0986 17.5,25.5 Z"/></g>
<g><path style="opacity:0.999" fill="#559e7a" d="M 22.5,50.5 C 22.5,50.8333 22.5,51.1667 22.5,51.5C 20.1542,54.8708 17.8208,58.2041 15.5,61.5C 11.8108,57.1352 8.47751,52.4685 5.5,47.5C 4.76589,46.2921 4.43255,44.9587 4.5,43.5C 6.64516,40.5672 8.81183,37.5672 11,34.5C 15.052,39.712 18.8854,45.0454 22.5,50.5 Z"/></g>
<g><path style="opacity:0.997" fill="#569f7a" d="M 41.5,43.5 C 41.5,44.1667 41.5,44.8333 41.5,45.5C 38.3144,51.2183 34.6477,56.5516 30.5,61.5C 28.2133,57.8781 25.5466,54.5448 22.5,51.5C 22.5,51.1667 22.5,50.8333 22.5,50.5C 25.1846,47.8103 27.5179,44.8103 29.5,41.5C 30.9117,39.0199 32.5784,36.6866 34.5,34.5C 37.0949,37.388 39.4283,40.388 41.5,43.5 Z"/></g>
<g><path style="opacity:0.935" fill="#599f7e" d="M 3.5,47.5 C 3.5,48.1667 3.83333,48.5 4.5,48.5C 7.4737,53.1491 10.4737,57.8157 13.5,62.5C 19.4632,63.4959 25.4632,63.8293 31.5,63.5C 31.5,63.8333 31.5,64.1667 31.5,64.5C 25.4908,64.3338 19.4908,64.5005 13.5,65C 12.695,66.1127 12.0283,67.2794 11.5,68.5C 11.1667,68.5 10.8333,68.5 10.5,68.5C 7.18783,63.1955 3.52117,58.1955 -0.5,53.5C -0.5,52.5 -0.5,51.5 -0.5,50.5C 0.636613,49.2112 1.96995,48.2112 3.5,47.5 Z"/></g>
<g><path style="opacity:0.926" fill="#56a07a" d="M 42.5,47.5 C 44.0301,48.2112 45.3634,49.2112 46.5,50.5C 46.5,51.5 46.5,52.5 46.5,53.5C 42.4788,58.1955 38.8122,63.1955 35.5,68.5C 35.1667,68.5 34.8333,68.5 34.5,68.5C 33.9744,66.7697 32.9744,65.4363 31.5,64.5C 31.5,64.1667 31.5,63.8333 31.5,63.5C 35.1667,58.1667 38.8333,52.8333 42.5,47.5 Z"/></g>
<g><path style="opacity:1" fill="#f1f7f4" d="M 13.5,4.5 C 19.8421,4.33379 26.1754,4.50046 32.5,5C 36.0297,10.6767 39.6963,16.1767 43.5,21.5C 43.8032,30.2511 43.4699,38.9177 42.5,47.5C 38.8333,52.8333 35.1667,58.1667 31.5,63.5C 25.4632,63.8293 19.4632,63.4959 13.5,62.5C 10.4737,57.8157 7.4737,53.1491 4.5,48.5C 4.5,47.8333 4.83333,47.5 5.5,47.5C 8.47751,52.4685 11.8108,57.1352 15.5,61.5C 20.5,62.8333 25.5,62.8333 30.5,61.5C 34.6477,56.5516 38.3144,51.2183 41.5,45.5C 42.6552,38.3451 42.8218,31.0118 42,23.5C 38.3918,17.2659 34.5585,11.2659 30.5,5.5C 25.5,5.5 20.5,5.5 15.5,5.5C 11.1043,11.0783 7.27092,17.0783 4,23.5C 3.50031,31.1594 3.33365,38.8261 3.5,46.5C 2.50728,38.3501 2.17395,30.0168 2.5,21.5C 6.40225,16.0401 10.0689,10.3734 13.5,4.5 Z"/></g>
<g><path style="opacity:0.996" fill="#0a694e" d="M 22.5,51.5 C 25.5466,54.5448 28.2133,57.8781 30.5,61.5C 25.5,62.8333 20.5,62.8333 15.5,61.5C 17.8208,58.2041 20.1542,54.8708 22.5,51.5 Z"/></g>
<g><path style="opacity:1" fill="#9ac7ab" d="M 22.5,17.5 C 26.8289,22.5081 30.8289,27.8415 34.5,33.5C 37.1566,30.8534 39.3232,27.8534 41,24.5C 41.4995,30.8246 41.6662,37.1579 41.5,43.5C 39.4283,40.388 37.0949,37.388 34.5,34.5C 32.5784,36.6866 30.9117,39.0199 29.5,41.5C 28.7321,40.7375 28.2321,39.7375 28,38.5C 27.2828,39.0442 26.7828,39.7109 26.5,40.5C 25.1667,40.5 23.8333,40.5 22.5,40.5C 22.5,38.1667 22.5,35.8333 22.5,33.5C 24.1092,33.9059 25.4425,33.9059 26.5,33.5C 25.3112,32.5713 23.9778,32.238 22.5,32.5C 22.5,30.5 22.5,28.5 22.5,26.5C 24.3904,26.2965 25.8904,26.9632 27,28.5C 27.4828,27.552 27.6495,26.552 27.5,25.5C 24.5,25.5 21.5,25.5 18.5,25.5C 18.1667,25.5 17.8333,25.5 17.5,25.5C 19.1667,22.8333 20.8333,20.1667 22.5,17.5 Z"/></g>
<g><path style="opacity:1" fill="#408b6f" d="M 18.5,25.5 C 21.5,25.5 24.5,25.5 27.5,25.5C 27.6495,26.552 27.4828,27.552 27,28.5C 25.8904,26.9632 24.3904,26.2965 22.5,26.5C 22.5,28.5 22.5,30.5 22.5,32.5C 23.9778,32.238 25.3112,32.5713 26.5,33.5C 25.4425,33.9059 24.1092,33.9059 22.5,33.5C 22.5,35.8333 22.5,38.1667 22.5,40.5C 23.8333,40.5 25.1667,40.5 26.5,40.5C 24.9866,41.5098 22.6533,41.8431 19.5,41.5C 19.7825,36.0735 19.4491,30.7401 18.5,25.5 Z"/></g>
<g><path style="opacity:0.999" fill="#cfe6d5" d="M 30.5,5.5 C 34.5585,11.2659 38.3918,17.2659 42,23.5C 42.8218,31.0118 42.6552,38.3451 41.5,45.5C 41.5,44.8333 41.5,44.1667 41.5,43.5C 41.6662,37.1579 41.4995,30.8246 41,24.5C 39.3232,27.8534 37.1566,30.8534 34.5,33.5C 30.8289,27.8415 26.8289,22.5081 22.5,17.5C 22.5,17.1667 22.5,16.8333 22.5,16.5C 25.8884,13.4029 28.5551,9.73627 30.5,5.5 Z"/></g>
<g><path style="opacity:0.999" fill="#a3ccb2" d="M 15.5,5.5 C 20.5,5.5 25.5,5.5 30.5,5.5C 28.5551,9.73627 25.8884,13.4029 22.5,16.5C 20.4164,12.6641 18.083,8.99741 15.5,5.5 Z"/></g>
<g><path style="opacity:1" fill="#01654a" d="M 31.5,64.5 C 32.9744,65.4363 33.9744,66.7697 34.5,68.5C 26.8333,68.5 19.1667,68.5 11.5,68.5C 12.0283,67.2794 12.695,66.1127 13.5,65C 19.4908,64.5005 25.4908,64.3338 31.5,64.5 Z"/></g>
</svg>
