<svg width="22" height="20" viewBox="0 0 22 20" fill="none" xmlns="http://www.w3.org/2000/svg">
<path d="M8.25 20L7.85 16.8C7.63333 16.7167 7.42933 16.6167 7.238 16.5C7.04666 16.3833 6.859 16.2583 6.675 16.125L3.7 17.375L0.949997 12.625L3.525 10.675C3.50833 10.5583 3.5 10.446 3.5 10.338V9.663C3.5 9.55433 3.50833 9.44167 3.525 9.325L0.949997 7.375L3.7 2.625L6.675 3.875C6.85833 3.74167 7.05 3.61667 7.25 3.5C7.45 3.38333 7.65 3.28333 7.85 3.2L8.25 0H13.75L14.15 3.2C14.3667 3.28333 14.571 3.38333 14.763 3.5C14.955 3.61667 15.1423 3.74167 15.325 3.875L18.3 2.625L21.05 7.375L18.475 9.325C18.4917 9.44167 18.5 9.55433 18.5 9.663V10.337C18.5 10.4457 18.4833 10.5583 18.45 10.675L21.025 12.625L18.275 17.375L15.325 16.125C15.1417 16.2583 14.95 16.3833 14.75 16.5C14.55 16.6167 14.35 16.7167 14.15 16.8L13.75 20H8.25ZM10 18H11.975L12.325 15.35C12.8417 15.2167 13.321 15.021 13.763 14.763C14.205 14.505 14.609 14.1923 14.975 13.825L17.45 14.85L18.425 13.15L16.275 11.525C16.3583 11.2917 16.4167 11.046 16.45 10.788C16.4833 10.53 16.5 10.2673 16.5 10C16.5 9.73267 16.4833 9.47033 16.45 9.213C16.4167 8.95567 16.3583 8.70967 16.275 8.475L18.425 6.85L17.45 5.15L14.975 6.2C14.6083 5.81667 14.2043 5.496 13.763 5.238C13.3217 4.98 12.8423 4.784 12.325 4.65L12 2H10.025L9.675 4.65C9.15833 4.78333 8.67933 4.97933 8.238 5.238C7.79666 5.49667 7.39233 5.809 7.025 6.175L4.55 5.15L3.575 6.85L5.725 8.45C5.64166 8.7 5.58333 8.95 5.55 9.2C5.51666 9.45 5.5 9.71667 5.5 10C5.5 10.2667 5.51666 10.525 5.55 10.775C5.58333 11.025 5.64166 11.275 5.725 11.525L3.575 13.15L4.55 14.85L7.025 13.8C7.39166 14.1833 7.796 14.5043 8.238 14.763C8.68 15.0217 9.159 15.2173 9.675 15.35L10 18ZM11.05 13.5C12.0167 13.5 12.8417 13.1583 13.525 12.475C14.2083 11.7917 14.55 10.9667 14.55 10C14.55 9.03333 14.2083 8.20833 13.525 7.525C12.8417 6.84167 12.0167 6.5 11.05 6.5C10.0667 6.5 9.23733 6.84167 8.562 7.525C7.88666 8.20833 7.54933 9.03333 7.55 10C7.55066 10.9667 7.88833 11.7917 8.563 12.475C9.23766 13.1583 10.0667 13.5 11.05 13.5Z" fill="black"/>
</svg>
