<svg width="10" height="13" viewBox="0 0 10 13" fill="none" xmlns="http://www.w3.org/2000/svg">
<path d="M8.5 7C8.89782 7 9.27936 7.15804 9.56066 7.43934C9.84196 7.72064 10 8.10218 10 8.5V9C10 10.971 8.14 13 5 13C1.86 13 0 10.971 0 9V8.5C0 8.10218 0.158035 7.72064 0.43934 7.43934C0.720644 7.15804 1.10218 7 1.5 7H8.5ZM5 0.5C5.72935 0.5 6.42882 0.789731 6.94454 1.30546C7.46027 1.82118 7.75 2.52065 7.75 3.25C7.75 3.97935 7.46027 4.67882 6.94454 5.19454C6.42882 5.71027 5.72935 6 5 6C4.27065 6 3.57118 5.71027 3.05546 5.19454C2.53973 4.67882 2.25 3.97935 2.25 3.25C2.25 2.52065 2.53973 1.82118 3.05546 1.30546C3.57118 0.789731 4.27065 0.5 5 0.5Z" fill="black"/>
</svg>
